<?xml version="1.0" encoding="UTF-8"?>
<svg id="Layer_1" xmlns="http://www.w3.org/2000/svg" version="1.1" viewBox="0 0 569.89 112.42">
  <!-- Generator: Adobe Illustrator 29.5.0, SVG Export Plug-In . SVG Version: 2.1.0 Build 137)  -->
  <defs>
    <style>
      .st0 {
        fill: #33bfbf;
      }
    </style>
  </defs>
  <path class="st0" d="M78.72,48.84c0,2.09,5.94,10.3,23.1,10.3h14.35c2.81,0,.09-4.97-12.24-10.15-13.09-5.5-25.2-5.25-25.2-.15Z"/>
  <path class="st0" d="M307.04,67.53c0,21.89-14.8,40.59-40.77,40.59s-40.54-17.91-40.54-40.63c0-21.48,15.99-40.08,40.85-40.08s40.45,18.63,40.45,40.12ZM237.33,67.2c0,16.65,10.16,31.74,29.33,31.74s28.8-14.38,28.8-31.19-10.11-31.16-29.49-31.16c-18.05,0-28.64,14.25-28.64,30.61Z"/>
  <path class="st0" d="M64.95,23.78h13.05v37.33h125.6v-27.33h13.05v72.36h-13.05v-33.96h-125.6v33.96h-13.05V23.78Z"/>
  <g>
    <path class="st0" d="M340.51,37.99h-29.52v-9.28h70.03v9.28h-29.49v68.15h-11.02V37.99Z"/>
    <path class="st0" d="M393.99,28.7h10.87v68.12h46.7l-1.65,9.32h-55.91V28.7Z"/>
    <path class="st0" d="M474.55,72.77v33.37h-10.87V28.7h36.99c15.87,0,26.49,7.27,26.49,21.02,0,9.36-4.66,15.99-14.15,18.46,5.09,1.42,12.12,5.29,12.12,18.84v3.41c0,5.94-.04,12.45.91,15.72h-11.19c-1.16-3.38-1.01-9.26-1.01-15.76v-2.58c0-11.42-4.43-15.02-18-15.02h-21.27ZM474.55,63.8h23.35c12.09,0,18.03-4.24,18.03-13.45,0-8.45-5.97-12.68-17.62-12.68h-23.75v26.13Z"/>
  </g>
</svg>