<?xml version="1.0" encoding="UTF-8"?>
<svg xmlns="http://www.w3.org/2000/svg" version="1.1" width="300" height="300" viewBox="0 0 300 300"><rect x="0" y="0" width="300" height="300" fill="#ffffff"/><g transform="scale(8.108)"><g transform="translate(2,2)"><path fill-rule="evenodd" d="M10 0L10 2L11 2L11 0ZM12 0L12 1L13 1L13 2L12 2L12 4L14 4L14 5L11 5L11 6L10 6L10 4L11 4L11 3L8 3L8 4L9 4L9 5L8 5L8 7L9 7L9 8L6 8L6 9L5 9L5 8L0 8L0 10L2 10L2 9L3 9L3 10L5 10L5 11L7 11L7 10L8 10L8 9L10 9L10 11L11 11L11 9L12 9L12 10L13 10L13 11L12 11L12 13L13 13L13 12L14 12L14 13L16 13L16 14L15 14L15 15L14 15L14 16L15 16L15 17L12 17L12 15L13 15L13 14L10 14L10 15L9 15L9 13L11 13L11 12L9 12L9 11L8 11L8 12L9 12L9 13L8 13L8 15L9 15L9 16L10 16L10 18L11 18L11 17L12 17L12 18L13 18L13 19L12 19L12 21L13 21L13 20L14 20L14 21L19 21L19 22L18 22L18 23L19 23L19 24L20 24L20 25L18 25L18 24L16 24L16 22L15 22L15 23L14 23L14 24L16 24L16 25L18 25L18 26L20 26L20 28L22 28L22 29L19 29L19 27L18 27L18 28L16 28L16 27L17 27L17 26L15 26L15 25L12 25L12 23L13 23L13 22L11 22L11 21L9 21L9 20L10 20L10 19L8 19L8 20L5 20L5 21L4 21L4 23L3 23L3 21L0 21L0 25L1 25L1 22L2 22L2 23L3 23L3 24L2 24L2 25L4 25L4 23L5 23L5 25L7 25L7 24L6 24L6 23L7 23L7 22L6 22L6 23L5 23L5 21L9 21L9 22L11 22L11 24L10 24L10 23L8 23L8 24L9 24L9 25L8 25L8 27L9 27L9 26L10 26L10 25L12 25L12 26L13 26L13 27L12 27L12 29L13 29L13 28L14 28L14 29L19 29L19 30L17 30L17 31L19 31L19 30L21 30L21 31L20 31L20 32L22 32L22 33L23 33L23 32L24 32L24 33L25 33L25 32L24 32L24 31L27 31L27 32L28 32L28 33L29 33L29 31L30 31L30 32L31 32L31 33L32 33L32 32L31 32L31 31L30 31L30 30L33 30L33 28L32 28L32 26L33 26L33 24L32 24L32 26L31 26L31 25L30 25L30 24L31 24L31 23L32 23L32 22L33 22L33 21L32 21L32 20L31 20L31 19L32 19L32 18L33 18L33 17L32 17L32 16L31 16L31 15L32 15L32 14L33 14L33 13L31 13L31 15L30 15L30 13L29 13L29 10L28 10L28 8L27 8L27 9L26 9L26 8L24 8L24 9L19 9L19 8L16 8L16 7L17 7L17 6L16 6L16 5L15 5L15 4L19 4L19 5L18 5L18 7L19 7L19 5L20 5L20 7L21 7L21 8L22 8L22 7L23 7L23 5L24 5L24 3L25 3L25 0L23 0L23 1L22 1L22 2L21 2L21 3L20 3L20 4L19 4L19 2L18 2L18 3L17 3L17 2L16 2L16 1L15 1L15 0L14 0L14 1L13 1L13 0ZM19 0L19 1L20 1L20 0ZM8 1L8 2L9 2L9 1ZM14 1L14 2L13 2L13 3L14 3L14 4L15 4L15 3L16 3L16 2L15 2L15 1ZM23 1L23 3L24 3L24 1ZM14 2L14 3L15 3L15 2ZM20 4L20 5L21 5L21 4ZM9 6L9 7L10 7L10 6ZM11 6L11 7L12 7L12 9L14 9L14 10L16 10L16 11L14 11L14 12L16 12L16 13L17 13L17 14L16 14L16 15L15 15L15 16L16 16L16 15L17 15L17 16L19 16L19 17L15 17L15 18L16 18L16 19L14 19L14 20L16 20L16 19L17 19L17 20L19 20L19 21L21 21L21 22L22 22L22 24L21 24L21 23L20 23L20 22L19 22L19 23L20 23L20 24L21 24L21 25L20 25L20 26L21 26L21 25L22 25L22 26L24 26L24 25L22 25L22 24L23 24L23 23L24 23L24 24L27 24L27 22L25 22L25 21L27 21L27 20L28 20L28 19L26 19L26 18L25 18L25 17L28 17L28 18L29 18L29 17L30 17L30 19L29 19L29 20L30 20L30 21L28 21L28 24L30 24L30 23L29 23L29 22L30 22L30 21L31 21L31 20L30 20L30 19L31 19L31 16L30 16L30 15L29 15L29 13L28 13L28 16L26 16L26 14L25 14L25 13L27 13L27 12L28 12L28 11L27 11L27 10L25 10L25 9L24 9L24 10L21 10L21 11L20 11L20 10L19 10L19 9L15 9L15 7L16 7L16 6L15 6L15 7L14 7L14 6L13 6L13 7L12 7L12 6ZM21 6L21 7L22 7L22 6ZM24 6L24 7L25 7L25 6ZM10 8L10 9L11 9L11 8ZM29 8L29 9L30 9L30 8ZM31 8L31 10L33 10L33 9L32 9L32 8ZM6 9L6 10L7 10L7 9ZM18 10L18 11L19 11L19 10ZM24 10L24 11L25 11L25 12L24 12L24 13L22 13L22 14L21 14L21 15L19 15L19 16L20 16L20 17L19 17L19 18L18 18L18 19L19 19L19 18L20 18L20 17L21 17L21 18L22 18L22 17L23 17L23 18L24 18L24 17L25 17L25 16L24 16L24 15L25 15L25 14L24 14L24 13L25 13L25 12L26 12L26 11L25 11L25 10ZM16 11L16 12L17 12L17 13L19 13L19 14L20 14L20 13L21 13L21 12L22 12L22 11L21 11L21 12L20 12L20 13L19 13L19 12L17 12L17 11ZM30 11L30 12L31 12L31 11ZM6 12L6 13L7 13L7 12ZM2 13L2 14L1 14L1 15L2 15L2 16L0 16L0 17L2 17L2 19L0 19L0 20L2 20L2 19L3 19L3 20L4 20L4 19L7 19L7 18L6 18L6 17L7 17L7 16L5 16L5 14L4 14L4 18L3 18L3 13ZM6 14L6 15L7 15L7 14ZM22 14L22 16L21 16L21 17L22 17L22 16L23 16L23 15L24 15L24 14ZM28 16L28 17L29 17L29 16ZM8 17L8 18L9 18L9 17ZM20 19L20 20L23 20L23 21L22 21L22 22L24 22L24 21L25 21L25 19L24 19L24 20L23 20L23 19ZM25 25L25 28L28 28L28 25ZM29 25L29 28L30 28L30 29L31 29L31 28L30 28L30 27L31 27L31 26L30 26L30 25ZM26 26L26 27L27 27L27 26ZM10 27L10 29L11 29L11 27ZM14 27L14 28L15 28L15 27ZM23 27L23 29L22 29L22 30L23 30L23 31L22 31L22 32L23 32L23 31L24 31L24 27ZM8 28L8 33L9 33L9 32L10 32L10 33L12 33L12 31L13 31L13 30L11 30L11 32L10 32L10 30L9 30L9 28ZM25 29L25 30L28 30L28 31L29 31L29 30L28 30L28 29ZM15 30L15 31L14 31L14 32L15 32L15 33L16 33L16 32L15 32L15 31L16 31L16 30ZM17 32L17 33L18 33L18 32ZM0 0L0 7L7 7L7 0ZM1 1L1 6L6 6L6 1ZM2 2L2 5L5 5L5 2ZM26 0L26 7L33 7L33 0ZM27 1L27 6L32 6L32 1ZM28 2L28 5L31 5L31 2ZM0 26L0 33L7 33L7 26ZM1 27L1 32L6 32L6 27ZM2 28L2 31L5 31L5 28Z" fill="#000000"/></g></g></svg>
