<?xml version="1.0" encoding="UTF-8"?>
<svg xmlns="http://www.w3.org/2000/svg" version="1.1" width="300" height="300" viewBox="0 0 300 300"><rect x="0" y="0" width="300" height="300" fill="#ffffff"/><g transform="scale(8.108)"><g transform="translate(2,2)"><path fill-rule="evenodd" d="M8 0L8 1L9 1L9 2L10 2L10 3L11 3L11 1L13 1L13 2L12 2L12 4L11 4L11 5L10 5L10 4L9 4L9 5L10 5L10 8L9 8L9 6L8 6L8 8L9 8L9 9L7 9L7 8L6 8L6 9L7 9L7 10L6 10L6 11L5 11L5 10L4 10L4 11L2 11L2 10L1 10L1 9L2 9L2 8L0 8L0 12L3 12L3 14L4 14L4 15L3 15L3 16L4 16L4 15L5 15L5 13L7 13L7 12L6 12L6 11L8 11L8 12L9 12L9 13L10 13L10 12L11 12L11 13L13 13L13 14L11 14L11 15L10 15L10 14L6 14L6 15L10 15L10 16L6 16L6 17L5 17L5 18L4 18L4 17L3 17L3 18L2 18L2 14L1 14L1 13L0 13L0 15L1 15L1 16L0 16L0 17L1 17L1 18L0 18L0 25L2 25L2 24L3 24L3 25L4 25L4 24L3 24L3 23L5 23L5 25L8 25L8 26L9 26L9 28L8 28L8 30L9 30L9 31L8 31L8 33L12 33L12 31L13 31L13 33L14 33L14 31L16 31L16 28L15 28L15 27L21 27L21 25L20 25L20 24L21 24L21 19L22 19L22 20L23 20L23 21L22 21L22 26L23 26L23 27L22 27L22 28L23 28L23 32L22 32L22 33L23 33L23 32L24 32L24 33L26 33L26 32L27 32L27 31L28 31L28 32L29 32L29 30L28 30L28 29L29 29L29 24L31 24L31 25L30 25L30 26L32 26L32 24L31 24L31 23L33 23L33 22L32 22L32 21L30 21L30 20L33 20L33 15L32 15L32 16L31 16L31 15L30 15L30 12L31 12L31 13L33 13L33 12L31 12L31 11L30 11L30 10L29 10L29 9L28 9L28 10L26 10L26 9L27 9L27 8L26 8L26 9L25 9L25 8L24 8L24 9L23 9L23 8L22 8L22 9L23 9L23 10L22 10L22 14L24 14L24 15L22 15L22 16L24 16L24 17L25 17L25 19L24 19L24 18L23 18L23 19L22 19L22 18L21 18L21 19L20 19L20 17L19 17L19 16L20 16L20 15L21 15L21 13L20 13L20 11L18 11L18 10L21 10L21 5L23 5L23 6L22 6L22 7L23 7L23 6L24 6L24 7L25 7L25 6L24 6L24 5L23 5L23 4L24 4L24 3L25 3L25 0L24 0L24 3L23 3L23 4L21 4L21 3L22 3L22 2L23 2L23 0L22 0L22 1L19 1L19 0L17 0L17 1L16 1L16 2L18 2L18 3L17 3L17 4L19 4L19 5L16 5L16 7L15 7L15 6L14 6L14 7L13 7L13 5L12 5L12 4L15 4L15 2L14 2L14 1L15 1L15 0L11 0L11 1L9 1L9 0ZM18 1L18 2L19 2L19 4L20 4L20 5L19 5L19 7L18 7L18 6L17 6L17 7L16 7L16 9L17 9L17 10L16 10L16 11L15 11L15 10L14 10L14 13L16 13L16 15L17 15L17 16L16 16L16 19L15 19L15 18L12 18L12 19L11 19L11 17L14 17L14 16L15 16L15 14L14 14L14 15L12 15L12 16L11 16L11 17L9 17L9 18L10 18L10 19L11 19L11 20L10 20L10 21L9 21L9 23L8 23L8 22L7 22L7 21L8 21L8 20L7 20L7 19L8 19L8 17L6 17L6 18L7 18L7 19L5 19L5 21L4 21L4 22L7 22L7 23L6 23L6 24L8 24L8 25L9 25L9 26L11 26L11 28L9 28L9 29L11 29L11 28L12 28L12 27L14 27L14 26L15 26L15 25L13 25L13 24L14 24L14 21L12 21L12 19L13 19L13 20L14 20L14 19L15 19L15 20L16 20L16 21L17 21L17 22L18 22L18 23L19 23L19 24L20 24L20 22L18 22L18 21L19 21L19 20L20 20L20 19L18 19L18 18L19 18L19 17L18 17L18 15L17 15L17 14L18 14L18 13L19 13L19 14L20 14L20 13L19 13L19 12L16 12L16 11L17 11L17 10L18 10L18 9L19 9L19 7L20 7L20 5L21 5L21 4L20 4L20 2L19 2L19 1ZM11 5L11 7L12 7L12 9L10 9L10 10L9 10L9 11L10 11L10 10L12 10L12 11L13 11L13 10L12 10L12 9L13 9L13 7L12 7L12 5ZM14 7L14 9L15 9L15 7ZM3 8L3 9L5 9L5 8ZM17 8L17 9L18 9L18 8ZM32 8L32 9L31 9L31 10L32 10L32 11L33 11L33 10L32 10L32 9L33 9L33 8ZM24 9L24 10L25 10L25 11L24 11L24 12L25 12L25 11L26 11L26 12L27 12L27 11L26 11L26 10L25 10L25 9ZM28 11L28 13L24 13L24 14L29 14L29 11ZM4 12L4 13L5 13L5 12ZM24 15L24 16L25 16L25 17L26 17L26 16L27 16L27 18L26 18L26 19L27 19L27 18L28 18L28 19L29 19L29 20L28 20L28 21L27 21L27 20L26 20L26 22L25 22L25 21L24 21L24 23L23 23L23 26L24 26L24 24L28 24L28 23L30 23L30 21L29 21L29 20L30 20L30 19L32 19L32 18L31 18L31 16L30 16L30 15L29 15L29 16L30 16L30 17L29 17L29 18L28 18L28 15ZM17 17L17 18L18 18L18 17ZM1 18L1 20L2 20L2 21L1 21L1 24L2 24L2 21L3 21L3 20L2 20L2 18ZM3 18L3 19L4 19L4 18ZM16 19L16 20L17 20L17 21L18 21L18 20L17 20L17 19ZM23 19L23 20L24 20L24 19ZM6 20L6 21L7 21L7 20ZM10 21L10 24L9 24L9 25L11 25L11 21ZM28 21L28 22L26 22L26 23L28 23L28 22L29 22L29 21ZM12 22L12 23L13 23L13 22ZM15 23L15 24L16 24L16 23ZM17 24L17 26L20 26L20 25L18 25L18 24ZM12 25L12 26L13 26L13 25ZM25 25L25 28L28 28L28 25ZM26 26L26 27L27 27L27 26ZM23 27L23 28L24 28L24 27ZM30 27L30 28L31 28L31 29L30 29L30 30L31 30L31 31L30 31L30 32L33 32L33 29L32 29L32 28L33 28L33 27ZM13 28L13 29L12 29L12 30L10 30L10 31L9 31L9 32L11 32L11 31L12 31L12 30L15 30L15 28ZM18 28L18 29L17 29L17 31L18 31L18 32L17 32L17 33L21 33L21 32L20 32L20 31L22 31L22 30L21 30L21 28L20 28L20 29L19 29L19 28ZM18 29L18 31L19 31L19 29ZM25 29L25 31L24 31L24 32L25 32L25 31L27 31L27 29ZM15 32L15 33L16 33L16 32ZM0 0L0 7L7 7L7 0ZM1 1L1 6L6 6L6 1ZM2 2L2 5L5 5L5 2ZM26 0L26 7L33 7L33 0ZM27 1L27 6L32 6L32 1ZM28 2L28 5L31 5L31 2ZM0 26L0 33L7 33L7 26ZM1 27L1 32L6 32L6 27ZM2 28L2 31L5 31L5 28Z" fill="#000000"/></g></g></svg>
